<?xml version="1.0" standalone="no"?>
<!DOCTYPE svg PUBLIC "-//W3C//DTD SVG 20010904//EN"
 "http://www.w3.org/TR/2001/REC-SVG-20010904/DTD/svg10.dtd">
<svg version="1.0" xmlns="http://www.w3.org/2000/svg"
 width="2560.000000pt" height="1099.000000pt" viewBox="0 0 2560.000000 1099.000000"
 preserveAspectRatio="xMidYMid meet">

<g transform="translate(0.000000,1099.000000) scale(0.100000,-0.100000)"
fill="#000000" stroke="none">
<path d="M16330 10869 c-1041 -35 -2024 -343 -2855 -894 -600 -398 -1074 -871
-1470 -1470 -518 -782 -808 -1660 -876 -2650 -15 -217 -6 -767 15 -965 96
-885 356 -1651 797 -2353 498 -791 1239 -1457 2084 -1872 586 -287 1162 -453
1845 -531 224 -25 825 -31 1105 -10 1666 125 2901 802 3931 2158 57 75 106
143 109 150 3 8 -390 294 -1062 773 -587 418 -1072 761 -1079 763 -6 2 -35
-25 -64 -60 -594 -713 -1151 -1058 -1885 -1164 -173 -26 -586 -26 -745 -1
-267 42 -463 103 -695 217 -88 43 -204 108 -259 144 -622 417 -1026 1105
-1142 1946 -21 155 -30 584 -15 747 37 410 136 762 310 1108 138 273 283 477
481 676 304 305 679 520 1090 624 472 120 1067 80 1525 -102 208 -82 464 -231
658 -380 190 -147 432 -385 601 -590 l59 -72 113 87 c542 418 2035 1576 2039
1581 2 4 -30 52 -72 107 -574 754 -1289 1311 -2108 1642 -568 229 -1245 369
-1880 387 -93 3 -210 7 -260 8 -49 2 -182 0 -295 -4z"/>
<path d="M93 7553 c3 -2283 7 -3153 15 -3248 74 -819 215 -1386 481 -1940 386
-804 1028 -1426 1842 -1785 704 -311 1495 -460 2439 -460 2098 0 3571 751
4305 2195 314 618 488 1338 535 2210 6 120 10 1290 10 3168 l0 2977 -1450 0
-1450 0 -3 -3097 -2 -3098 -23 -135 c-53 -324 -136 -581 -256 -791 -298 -520
-800 -803 -1489 -838 -744 -38 -1305 197 -1664 697 -207 289 -343 706 -383
1177 -6 77 -10 1177 -10 3103 l0 2982 -1450 0 -1451 0 4 -3117z"/>
<path d="M22640 5490 l0 -5180 1435 0 1435 0 0 5180 0 5180 -1435 0 -1435 0 0
-5180z"/>
</g>
</svg>
